# xmcd
#
# Track frame offsets: 
#        182
#        13150
#        25654
#        38260
#        51846
#        65126
#        78463
#        91253
#        105283
#        118622
#        132840
#        147094
#        159887
#        173479
#        187453
#        199590
#        212225
#        224097
#        236489
#        248193
#        259009
#        270124
#        282316
#
# Disc length: 3915 seconds
#
# Revision: 0
# Processed by: cddbd v1.5.2PL0 Copyright (c) Steve Scherf et al.
# Submitted via: ExactAudioCopy v0.99pb5
#
DISCID=400f4917
DTITLE=Jimmy Witherspoon - 1947-1948
DYEAR=1900
DGENRE=Blues
TTITLE0=Wandering Gal Blues
TTITLE1=Hey Mr Landlord (Landlord Shuffle)
TTITLE2=Cain River Blues
TTITLE3=How I Hate To See Xmas Come Around (Christmas Blues)
TTITLE4=Third Floor Blues
TTITLE5=Money's Geting Cheaper (Times Getting Tougher)
TTITLE6=Skidrow Blues
TTITLE7=How Long
TTITLE8=Ain't Nobody's Business Pt 1
TTITLE9=Ain't Nobody's Business Pt 2
TTITLE10=Back Water Blues
TTITLE11=Frogimore Blues
TTITLE12=In The Evening When The Sun Goes Down
TTITLE13=Wee Baby Blues (Early Morning Blues)
TTITLE14=Six-Foot-Two Blues
TTITLE15=How You Gonna Act
TTITLE16=Money Eyes Woman
TTITLE17=Spoon Calls Hootie
TTITLE18=Destruction Blues
TTITLE19=Call My Baby
TTITLE20=The New Look
TTITLE21=Big Heart
TTITLE22=Drunk, Broke And Hungry
EXTD=
EXTT0=
EXTT1=
EXTT2=
EXTT3=
EXTT4=
EXTT5=
EXTT6=
EXTT7=
EXTT8=
EXTT9=
EXTT10=
EXTT11=
EXTT12=
EXTT13=
EXTT14=
EXTT15=
EXTT16=
EXTT17=
EXTT18=
EXTT19=
EXTT20=
EXTT21=
EXTT22=
PLAYORDER=
